{
	"asset":{
		"generator":"Khronos glTF Blender I/O v4.5.47",
		"version":"2.0"
	},
	"extensionsUsed":[
		"KHR_materials_specular",
		"KHR_materials_ior"
	],
	"scene":0,
	"scenes":[
		{
			"name":"Scene",
			"nodes":[
				8
			]
		}
	],
	"nodes":[
		{
			"mesh":0,
			"name":"Object_6",
			"translation":[
				-2.208878186138463e-06,
				0,
				0
			]
		},
		{
			"children":[
				0
			],
			"name":"node_id63_2",
			"scale":[
				7.062755584716797,
				7.062755584716797,
				7.0627546310424805
			],
			"translation":[
				0.00022496454766951501,
				-221.96624755859375,
				381.74658203125
			]
		},
		{
			"mesh":1,
			"name":"Object_8",
			"translation":[
				-2.208878186138463e-06,
				0,
				0
			]
		},
		{
			"children":[
				2
			],
			"name":"node_id65_3",
			"scale":[
				7.062755584716797,
				7.062755584716797,
				7.0627546310424805
			],
			"translation":[
				0.00022496454766951501,
				-221.96624755859375,
				381.74658203125
			]
		},
		{
			"children":[
				1,
				3
			],
			"name":"node_id67_1",
			"rotation":[
				0,
				0.7071068286895752,
				0,
				0.7071067094802856
			],
			"scale":[
				0.0010000000474974513,
				0.0010000000474974513,
				0.0010000000474974513
			],
			"translation":[
				-0.4661586284637451,
				0.07500005513429642,
				0.39105984568595886
			]
		},
		{
			"children":[
				4
			],
			"name":"root_0"
		},
		{
			"children":[
				5
			],
			"name":"GLTF_SceneRootNode",
			"rotation":[
				0.70710688829422,
				0,
				0,
				0.7071066498756409
			]
		},
		{
			"children":[
				6
			],
			"name":"root"
		},
		{
			"children":[
				7
			],
			"name":"Sketchfab_model",
			"rotation":[
				-0.70710688829422,
				0,
				0,
				0.7071066498756409
			],
			"scale":[
				878.4713134765625,
				878.4713745117188,
				878.4713745117188
			],
			"translation":[
				0,
				16.530120849609375,
				-7.06300163269043
			]
		}
	],
	"materials":[
		{
			"doubleSided":true,
			"extensions":{
				"KHR_materials_specular":{
					"specularColorTexture":{
						"index":0
					}
				},
				"KHR_materials_ior":{
					"ior":1000
				}
			},
			"name":"material",
			"pbrMetallicRoughness":{
				"baseColorTexture":{
					"index":1
				},
				"metallicFactor":0,
				"metallicRoughnessTexture":{
					"index":2
				}
			}
		},
		{
			"doubleSided":true,
			"extensions":{
				"KHR_materials_specular":{
					"specularColorTexture":{
						"index":3
					}
				},
				"KHR_materials_ior":{
					"ior":1000
				}
			},
			"name":"material_1",
			"pbrMetallicRoughness":{
				"baseColorTexture":{
					"index":4
				},
				"metallicFactor":0,
				"metallicRoughnessTexture":{
					"index":5
				}
			}
		}
	],
	"meshes":[
		{
			"name":"Object_0",
			"primitives":[
				{
					"attributes":{
						"POSITION":0,
						"NORMAL":1,
						"TEXCOORD_0":2,
						"TEXCOORD_1":3,
						"TEXCOORD_2":4
					},
					"indices":5,
					"material":0
				}
			]
		},
		{
			"name":"Object_1",
			"primitives":[
				{
					"attributes":{
						"POSITION":6,
						"NORMAL":7,
						"TEXCOORD_0":8,
						"TEXCOORD_1":9,
						"TEXCOORD_2":10
					},
					"indices":11,
					"material":1
				}
			]
		}
	],
	"textures":[
		{
			"sampler":0,
			"source":0
		},
		{
			"sampler":0,
			"source":1
		},
		{
			"sampler":0,
			"source":2
		},
		{
			"sampler":0,
			"source":3
		},
		{
			"sampler":0,
			"source":4
		},
		{
			"sampler":0,
			"source":5
		}
	],
	"images":[
		{
			"mimeType":"image/png",
			"name":"Image_1",
			"uri":"Image_1.png"
		},
		{
			"mimeType":"image/png",
			"name":"Image_0",
			"uri":"Image_0.png"
		},
		{
			"mimeType":"image/png",
			"name":"Image_1",
			"uri":"Image_1-1.png"
		},
		{
			"mimeType":"image/png",
			"name":"Image_3",
			"uri":"Image_3.png"
		},
		{
			"mimeType":"image/png",
			"name":"Image_2",
			"uri":"Image_2.png"
		},
		{
			"mimeType":"image/png",
			"name":"Image_3",
			"uri":"Image_3-1.png"
		}
	],
	"accessors":[
		{
			"bufferView":0,
			"componentType":5126,
			"count":5037,
			"max":[
				21.947010040283203,
				59.6359748840332,
				56.68788528442383
			],
			"min":[
				-21.947010040283203,
				-4.818774223327637,
				-54.0506591796875
			],
			"type":"VEC3"
		},
		{
			"bufferView":1,
			"componentType":5126,
			"count":5037,
			"type":"VEC3"
		},
		{
			"bufferView":2,
			"componentType":5126,
			"count":5037,
			"type":"VEC2"
		},
		{
			"bufferView":3,
			"componentType":5126,
			"count":5037,
			"type":"VEC2"
		},
		{
			"bufferView":4,
			"componentType":5126,
			"count":5037,
			"type":"VEC2"
		},
		{
			"bufferView":5,
			"componentType":5123,
			"count":17640,
			"type":"SCALAR"
		},
		{
			"bufferView":6,
			"componentType":5126,
			"count":3388,
			"max":[
				17.11565589904785,
				67.67420196533203,
				55.34959030151367
			],
			"min":[
				-16.925785064697266,
				17.91016960144043,
				-39.869667053222656
			],
			"type":"VEC3"
		},
		{
			"bufferView":7,
			"componentType":5126,
			"count":3388,
			"type":"VEC3"
		},
		{
			"bufferView":8,
			"componentType":5126,
			"count":3388,
			"type":"VEC2"
		},
		{
			"bufferView":9,
			"componentType":5126,
			"count":3388,
			"type":"VEC2"
		},
		{
			"bufferView":10,
			"componentType":5126,
			"count":3388,
			"type":"VEC2"
		},
		{
			"bufferView":11,
			"componentType":5123,
			"count":11190,
			"type":"SCALAR"
		}
	],
	"bufferViews":[
		{
			"buffer":0,
			"byteLength":60444,
			"byteOffset":0,
			"target":34962
		},
		{
			"buffer":0,
			"byteLength":60444,
			"byteOffset":60444,
			"target":34962
		},
		{
			"buffer":0,
			"byteLength":40296,
			"byteOffset":120888,
			"target":34962
		},
		{
			"buffer":0,
			"byteLength":40296,
			"byteOffset":161184,
			"target":34962
		},
		{
			"buffer":0,
			"byteLength":40296,
			"byteOffset":201480,
			"target":34962
		},
		{
			"buffer":0,
			"byteLength":35280,
			"byteOffset":241776,
			"target":34963
		},
		{
			"buffer":0,
			"byteLength":40656,
			"byteOffset":277056,
			"target":34962
		},
		{
			"buffer":0,
			"byteLength":40656,
			"byteOffset":317712,
			"target":34962
		},
		{
			"buffer":0,
			"byteLength":27104,
			"byteOffset":358368,
			"target":34962
		},
		{
			"buffer":0,
			"byteLength":27104,
			"byteOffset":385472,
			"target":34962
		},
		{
			"buffer":0,
			"byteLength":27104,
			"byteOffset":412576,
			"target":34962
		},
		{
			"buffer":0,
			"byteLength":22380,
			"byteOffset":439680,
			"target":34963
		}
	],
	"samplers":[
		{
			"magFilter":9729,
			"minFilter":9987
		}
	],
	"buffers":[
		{
			"byteLength":462060,
			"uri":"Barquito.bin"
		}
	]
}
